# xmcd CD database file
#
# Track frame offsets:
#	150
#	21573
#	40351
#	57869
#	70117
#	86259
#	105298
#	118769
#	143065
#	158995
#	176566
#	190117
#
# Disc length: 2973 seconds
#
# Revision: 0
# Processed by: cddbd v1.5.2PL0 Copyright (c) Steve Scherf et al.
# Submitted via: CDex 1.51
#
DISCID=9c0b9b0c
DTITLE=Nulle og Verdensorkestret - Little Yellow House
DYEAR=2008
DGENRE=Jazz
TTITLE0=Always
TTITLE1=Little Yellow House
TTITLE2=A Kiss to Build a Dream On
TTITLE3=Midsummer Murders
TTITLE4=It's Allright With Me
TTITLE5=Creole Love Call
TTITLE6=Vou Vivendo
TTITLE7=Du Gamle Måne
TTITLE8=Patricia
TTITLE9=I Fall In Love Too Easily
TTITLE10=A Whiter Shade Of Pale
TTITLE11=Idas Sommervise, Pippis Sommarsång, Du Kära Lilla Snickarbo
EXTD=YEAR: 2008
EXTT0=
EXTT1=
EXTT2=
EXTT3=
EXTT4=
EXTT5=
EXTT6=
EXTT7=
EXTT8=
EXTT9=
EXTT10=
EXTT11=
PLAYORDER=
